<svg width="16" height="18" viewBox="0 0 16 18" fill="none" xmlns="http://www.w3.org/2000/svg">
<path d="M1.29289 3.44531L0.146447 2.29887C-0.0488155 2.1036 -0.0488155 1.78702 0.146447 1.59176C0.341709 1.3965 0.658291 1.3965 0.853553 1.59176L15.8536 16.5918C16.0488 16.787 16.0488 17.1036 15.8536 17.2989C15.6583 17.4941 15.3417 17.4941 15.1464 17.2989L13.1478 15.3003C12.7765 16.5528 11.6188 17.4453 10.2719 17.4453H5.72813C4.20431 17.4453 2.92256 16.303 2.7479 14.7892L1.55437 4.44531H0.5C0.223858 4.44531 0 4.22145 0 3.94531C0 3.66917 0.223858 3.44531 0.5 3.44531H1.29289ZM12.2859 14.4384L10 12.1524V13.4453C10 13.7215 9.77614 13.9453 9.5 13.9453C9.22386 13.9453 9 13.7215 9 13.4453V11.1524L7 9.15242V13.4453C7 13.7215 6.77614 13.9453 6.5 13.9453C6.22386 13.9453 6 13.7215 6 13.4453V8.15242L2.59598 4.7484L3.74131 14.6746C3.85775 15.6837 4.71225 16.4453 5.72813 16.4453H10.2719C11.2878 16.4453 12.1422 15.6837 12.2587 14.6746L12.2859 14.4384ZM9 8.32422L10 9.32422V7.44531C10 7.16917 9.77614 6.94531 9.5 6.94531C9.22386 6.94531 9 7.16917 9 7.44531V8.32422ZM13.439 4.44531L12.5785 11.9027L13.481 12.8052L14.4456 4.44531H15.5C15.7761 4.44531 16 4.22145 16 3.94531C16 3.66917 15.7761 3.44531 15.5 3.44531H10.5C10.5 2.0646 9.38071 0.945312 8 0.945312C6.61929 0.945312 5.5 2.0646 5.5 3.44531H4.12109L5.12109 4.44531H13.439ZM9.5 3.44531H6.5C6.5 2.61689 7.17157 1.94531 8 1.94531C8.82843 1.94531 9.5 2.61689 9.5 3.44531Z" fill="#CFD7E2"/>
</svg>
