<svg width="12" height="13" viewBox="0 0 12 13" fill="none" xmlns="http://www.w3.org/2000/svg">
<path d="M11.4403 1.00597C10.6927 0.25845 9.48077 0.258422 8.73321 1.00591L1.33829 8.40016C1.15725 8.58118 1.02085 8.80186 0.939895 9.04474L0.0256719 11.7874C-0.0342172 11.9671 0.0125441 12.1652 0.14646 12.2991C0.280376 12.433 0.47846 12.4798 0.658127 12.4199L3.40087 11.5056C3.64368 11.4247 3.86432 11.2883 4.04531 11.1074L11.4402 3.71314C12.1878 2.9656 12.1878 1.75354 11.4403 1.00597ZM9.44029 1.71305C9.79731 1.35606 10.3761 1.35607 10.7331 1.71308C11.0902 2.07011 11.0902 2.64898 10.7331 3.006L9.99937 3.73968L8.70648 2.44679L9.44029 1.71305ZM7.99934 3.15386L9.29223 4.44676L3.33823 10.4002C3.26701 10.4714 3.18019 10.5251 3.08464 10.5569L1.29058 11.155L1.88858 9.36097C1.92044 9.26539 1.97412 9.17854 2.04536 9.1073L7.99934 3.15386Z" fill="#246EF6"/>
</svg>
