<svg width="244" height="342" viewBox="0 0 244 342" fill="none" xmlns="http://www.w3.org/2000/svg">
<rect width="244" height="364" rx="6" fill="#E6EEFF"/>
<path d="M122 158C127.523 158 132 162.477 132 168C132 173.523 127.523 178 122 178C116.477 178 112 173.523 112 168C112 162.477 116.477 158 122 158ZM122 159.5C117.306 159.5 113.5 163.306 113.5 168C113.5 172.694 117.306 176.5 122 176.5C126.694 176.5 130.5 172.694 130.5 168C130.5 163.306 126.694 159.5 122 159.5ZM122 163C122.414 163 122.75 163.336 122.75 163.75V167.25H126.25C126.664 167.25 127 167.586 127 168C127 168.414 126.664 168.75 126.25 168.75H122.75V172.25C122.75 172.664 122.414 173 122 173C121.586 173 121.25 172.664 121.25 172.25V168.75H117.75C117.336 168.75 117 168.414 117 168C117 167.586 117.336 167.25 117.75 167.25H121.25V163.75C121.25 163.336 121.586 163 122 163Z" fill="#246EF6"/>
<path d="M75.1476 201H73.7499L76.8905 192.273H78.4118L81.5524 201H80.1547L77.6874 193.858H77.6192L75.1476 201ZM75.382 197.582H79.916V198.69H75.382V197.582ZM85.2053 201.128C84.6768 201.128 84.2053 200.993 83.7905 200.723C83.3785 200.45 83.0547 200.062 82.8189 199.56C82.5859 199.054 82.4695 198.447 82.4695 197.74C82.4695 197.033 82.5874 196.428 82.8232 195.925C83.0618 195.422 83.3885 195.037 83.8033 194.77C84.218 194.503 84.6882 194.369 85.2138 194.369C85.62 194.369 85.9467 194.438 86.1939 194.574C86.4439 194.707 86.6371 194.864 86.7734 195.043C86.9126 195.222 87.0206 195.379 87.0973 195.516H87.174V192.273H88.4482V201H87.2038V199.982H87.0973C87.0206 200.121 86.9098 200.28 86.7649 200.459C86.6229 200.638 86.4268 200.794 86.1768 200.928C85.9268 201.061 85.603 201.128 85.2053 201.128ZM85.4865 200.041C85.853 200.041 86.1626 199.945 86.4155 199.751C86.6712 199.555 86.8643 199.284 86.995 198.938C87.1285 198.591 87.1953 198.187 87.1953 197.727C87.1953 197.273 87.13 196.875 86.9993 196.534C86.8686 196.193 86.6768 195.928 86.424 195.737C86.1712 195.547 85.8587 195.452 85.4865 195.452C85.103 195.452 84.7834 195.551 84.5277 195.75C84.272 195.949 84.0788 196.22 83.9482 196.564C83.8203 196.908 83.7564 197.295 83.7564 197.727C83.7564 198.165 83.8217 198.558 83.9524 198.908C84.0831 199.257 84.2763 199.534 84.532 199.739C84.7905 199.94 85.1087 200.041 85.4865 200.041ZM92.867 201.128C92.3386 201.128 91.867 200.993 91.4522 200.723C91.0403 200.45 90.7164 200.062 90.4806 199.56C90.2477 199.054 90.1312 198.447 90.1312 197.74C90.1312 197.033 90.2491 196.428 90.4849 195.925C90.7235 195.422 91.0502 195.037 91.465 194.77C91.8798 194.503 92.3499 194.369 92.8755 194.369C93.2817 194.369 93.6084 194.438 93.8556 194.574C94.1056 194.707 94.2988 194.864 94.4352 195.043C94.5744 195.222 94.6823 195.379 94.759 195.516H94.8357V192.273H96.1099V201H94.8656V199.982H94.759C94.6823 200.121 94.5715 200.28 94.4266 200.459C94.2846 200.638 94.0886 200.794 93.8386 200.928C93.5886 201.061 93.2647 201.128 92.867 201.128ZM93.1482 200.041C93.5147 200.041 93.8244 199.945 94.0772 199.751C94.3329 199.555 94.5261 199.284 94.6567 198.938C94.7903 198.591 94.857 198.187 94.857 197.727C94.857 197.273 94.7917 196.875 94.661 196.534C94.5303 196.193 94.3386 195.928 94.0857 195.737C93.8329 195.547 93.5204 195.452 93.1482 195.452C92.7647 195.452 92.4451 195.551 92.1894 195.75C91.9337 195.949 91.7406 196.22 91.6099 196.564C91.482 196.908 91.4181 197.295 91.4181 197.727C91.4181 198.165 91.4834 198.558 91.6141 198.908C91.7448 199.257 91.938 199.534 92.1937 199.739C92.4522 199.94 92.7704 200.041 93.1482 200.041ZM108.55 192.273V201H107.34L102.904 194.599H102.823V201H101.506V192.273H102.725L107.166 198.682H107.247V192.273H108.55ZM113.34 201.132C112.695 201.132 112.14 200.994 111.674 200.719C111.211 200.44 110.853 200.05 110.6 199.547C110.35 199.041 110.225 198.449 110.225 197.77C110.225 197.099 110.35 196.509 110.6 195.997C110.853 195.486 111.205 195.087 111.657 194.8C112.111 194.513 112.643 194.369 113.251 194.369C113.62 194.369 113.978 194.43 114.324 194.553C114.671 194.675 114.982 194.866 115.258 195.128C115.533 195.389 115.751 195.729 115.91 196.146C116.069 196.561 116.148 197.065 116.148 197.659V198.111H110.945V197.156H114.9C114.9 196.821 114.832 196.524 114.695 196.266C114.559 196.004 114.367 195.798 114.12 195.648C113.876 195.497 113.589 195.422 113.259 195.422C112.901 195.422 112.589 195.51 112.322 195.686C112.057 195.859 111.853 196.087 111.708 196.368C111.566 196.646 111.495 196.949 111.495 197.276V198.021C111.495 198.459 111.572 198.831 111.725 199.138C111.881 199.445 112.099 199.679 112.377 199.841C112.655 200 112.981 200.08 113.353 200.08C113.594 200.08 113.814 200.045 114.013 199.977C114.212 199.906 114.384 199.801 114.529 199.662C114.674 199.523 114.785 199.351 114.861 199.146L116.067 199.364C115.971 199.719 115.797 200.03 115.547 200.297C115.3 200.561 114.989 200.767 114.614 200.915C114.242 201.06 113.817 201.132 113.34 201.132ZM119.119 201L117.193 194.455H118.51L119.793 199.261H119.857L121.143 194.455H122.46L123.739 199.24H123.803L125.077 194.455H126.393L124.472 201H123.172L121.842 196.274H121.744L120.415 201H119.119ZM130.75 193.406V192.273H137.505V193.406H134.782V201H133.469V193.406H130.75ZM140.319 197.114V201H139.045V192.273H140.302V195.52H140.383C140.536 195.168 140.771 194.888 141.086 194.68C141.401 194.473 141.813 194.369 142.322 194.369C142.771 194.369 143.163 194.462 143.498 194.646C143.836 194.831 144.097 195.107 144.282 195.473C144.47 195.837 144.563 196.291 144.563 196.837V201H143.289V196.99C143.289 196.51 143.166 196.138 142.918 195.874C142.671 195.607 142.327 195.473 141.887 195.473C141.586 195.473 141.316 195.537 141.077 195.665C140.842 195.793 140.656 195.98 140.519 196.227C140.386 196.472 140.319 196.767 140.319 197.114ZM149.235 201.132C148.59 201.132 148.034 200.994 147.568 200.719C147.105 200.44 146.747 200.05 146.495 199.547C146.245 199.041 146.12 198.449 146.12 197.77C146.12 197.099 146.245 196.509 146.495 195.997C146.747 195.486 147.1 195.087 147.551 194.8C148.006 194.513 148.537 194.369 149.145 194.369C149.514 194.369 149.872 194.43 150.219 194.553C150.566 194.675 150.877 194.866 151.152 195.128C151.428 195.389 151.645 195.729 151.804 196.146C151.963 196.561 152.043 197.065 152.043 197.659V198.111H146.84V197.156H150.794C150.794 196.821 150.726 196.524 150.59 196.266C150.453 196.004 150.262 195.798 150.014 195.648C149.77 195.497 149.483 195.422 149.154 195.422C148.796 195.422 148.483 195.51 148.216 195.686C147.952 195.859 147.747 196.087 147.602 196.368C147.46 196.646 147.389 196.949 147.389 197.276V198.021C147.389 198.459 147.466 198.831 147.62 199.138C147.776 199.445 147.993 199.679 148.272 199.841C148.55 200 148.875 200.08 149.247 200.08C149.489 200.08 149.709 200.045 149.908 199.977C150.107 199.906 150.279 199.801 150.424 199.662C150.568 199.523 150.679 199.351 150.756 199.146L151.962 199.364C151.865 199.719 151.692 200.03 151.442 200.297C151.195 200.561 150.884 200.767 150.509 200.915C150.137 201.06 149.712 201.132 149.235 201.132ZM153.607 201V194.455H154.83V195.52H154.911C155.047 195.159 155.27 194.878 155.58 194.676C155.889 194.472 156.26 194.369 156.692 194.369C157.129 194.369 157.496 194.472 157.791 194.676C158.089 194.881 158.31 195.162 158.452 195.52H158.52C158.676 195.17 158.925 194.892 159.266 194.685C159.607 194.474 160.013 194.369 160.484 194.369C161.078 194.369 161.562 194.555 161.938 194.928C162.315 195.3 162.504 195.861 162.504 196.611V201H161.23V196.73C161.23 196.287 161.109 195.966 160.868 195.767C160.626 195.568 160.338 195.469 160.003 195.469C159.588 195.469 159.266 195.597 159.036 195.852C158.805 196.105 158.69 196.43 158.69 196.828V201H157.42V196.649C157.42 196.294 157.31 196.009 157.088 195.793C156.866 195.577 156.578 195.469 156.223 195.469C155.982 195.469 155.759 195.533 155.554 195.661C155.352 195.786 155.189 195.96 155.064 196.185C154.942 196.409 154.881 196.669 154.881 196.964V201H153.607ZM167.183 201.132C166.538 201.132 165.983 200.994 165.517 200.719C165.054 200.44 164.696 200.05 164.443 199.547C164.193 199.041 164.068 198.449 164.068 197.77C164.068 197.099 164.193 196.509 164.443 195.997C164.696 195.486 165.048 195.087 165.5 194.8C165.954 194.513 166.486 194.369 167.094 194.369C167.463 194.369 167.821 194.43 168.167 194.553C168.514 194.675 168.825 194.866 169.101 195.128C169.376 195.389 169.594 195.729 169.753 196.146C169.912 196.561 169.991 197.065 169.991 197.659V198.111H164.788V197.156H168.743C168.743 196.821 168.675 196.524 168.538 196.266C168.402 196.004 168.21 195.798 167.963 195.648C167.719 195.497 167.432 195.422 167.102 195.422C166.744 195.422 166.432 195.51 166.165 195.686C165.9 195.859 165.696 196.087 165.551 196.368C165.409 196.646 165.338 196.949 165.338 197.276V198.021C165.338 198.459 165.415 198.831 165.568 199.138C165.724 199.445 165.942 199.679 166.22 199.841C166.498 200 166.824 200.08 167.196 200.08C167.437 200.08 167.657 200.045 167.856 199.977C168.055 199.906 168.227 199.801 168.372 199.662C168.517 199.523 168.628 199.351 168.704 199.146L169.91 199.364C169.814 199.719 169.64 200.03 169.39 200.297C169.143 200.561 168.832 200.767 168.457 200.915C168.085 201.06 167.66 201.132 167.183 201.132Z" fill="#246EF6" fill-opacity="0.964706"/>
</svg>
